# xmcd CD database file
#
# Track frame offsets:
#	150
#	20225
#	40026
#	53004
#	67867
#	87244
#	106801
#	126454
#	144695
#	165171
#
# Disc length: 2468 seconds
#
# Revision: 0
# Processed by: cddbd v1.4PL0 Copyright (c) Steve Scherf et al.
# Submitted via: CDex 1.51
#
DISCID=7e09a20a
DTITLE=Heikki Silvennoinen - Miehet Kaatuu
DYEAR=2003
DGENRE=Blues
TTITLE0=Viimeinkin
TTITLE1=Matkamiehen tie
TTITLE2=Suhdetoimintaa
TTITLE3=Lukua
TTITLE4=Henkiin j‰‰n
TTITLE5=Kuuleeko taivas
TTITLE6=Miehet kaatuu
TTITLE7=Rokuliin
TTITLE8=Vuosi nolla
TTITLE9=Poistukaa
EXTD=YEAR: 2003
EXTT0=
EXTT1=
EXTT2=
EXTT3=
EXTT4=
EXTT5=
EXTT6=
EXTT7=
EXTT8=
EXTT9=
PLAYORDER=
